<svg viewBox="0 0 1080 1080" fill="none" xmlns="http://www.w3.org/2000/svg">      <defs>  <filter id="filter" x="-20%" y="-20%" width="140%" height="140%" filterUnits="objectBoundingBox" primitiveUnits="userSpaceOnUse" color-interpolation-filters="linearRGB">    <feMorphology operator="dilate" radius="20 20" in="SourceAlpha" result="morphology"/>    <feFlood flood-color="#ffffff" flood-opacity="1" result="flood"/>    <feComposite in="flood" in2="morphology" operator="in" result="composite"/>    <feMerge result="merge">          <feMergeNode in="composite" result="mergeNode"/>      <feMergeNode in="SourceGraphic" result="mergeNode1"/>      </feMerge>  </filter></defs>      <g id="notion-avatar" filter="url(#filter)">        <g id="notion-avatar-face" fill="#ffffff">      <!--?xml version="1.0" encoding="UTF-8"?-->    <title>Face/ 9</title>    <g id="Face/-9" stroke="none" stroke-width="1" fill-rule="evenodd" stroke-linecap="round" stroke-linejoin="round">        <path d="M532,379 C664.54834,379 772,486.45166 772,619 C772,751.54834 704.54834,919 592,919 C506.683174,919 378.324367,822.776611 321.205121,718.475443 C318.188736,718.821948 315.115161,719 312,719 C267.81722,719 232,683.18278 232,639 C232,599.134956 261.158843,566.080325 299.312086,560.00055 C325.599297,455.979213 419.809919,379 532,379 Z M295.858895,624.545187 L304.141105,655.454813" id="Path" stroke="#000000" stroke-width="24"/>    </g>    </g><g id="notion-avatar-nose">      <g id="Nose/ 13"><path id="Path" fill-rule="evenodd" clip-rule="evenodd" d="M644 560C644 560 665.892 613.522 673 623C676 627 693.906 641.256 692.774 653.58C690.065 683.076 644 684.359 644 684.359C644 684.359 700 689.489 700 653.58C700 637.222 687 632 674 620C666.959 613.5 644 560 644 560Z" fill="black" stroke="black" stroke-width="6" stroke-linecap="round" stroke-linejoin="round"/></g>    </g><g id="notion-avatar-mouth">      <g id="Mouth/ 14"><g id="Group"><path id="Path" fill-rule="evenodd" clip-rule="evenodd" d="M555.87 801.555C536.147 789.209 521.396 768.019 521.396 768.019C521.396 768.019 569 757.637 609 757.319C649 757 696.604 768.019 696.604 768.019C696.604 768.019 681.852 789.209 662.129 801.555C653.101 807.207 625 810 609.443 810C593.886 810 564.806 807.15 555.87 801.555Z" stroke="black" stroke-width="16" stroke-linecap="round" stroke-linejoin="round"/><path id="Path_2" d="M569.322 801C569.322 801 589.161 793 609 793C628.838 793 648.677 801 648.677 801" stroke="black" stroke-width="8" stroke-linecap="round" stroke-linejoin="round"/></g></g>    </g><g id="notion-avatar-eyes">      <g id="Eyes/ 11"><g id="Group 3"><path id="Path" d="M660 536.5C660 536.5 668.471 533 679.765 533C691.059 533 702.811 538 723.059 538C743.306 538 756 533 756 533" stroke="black" stroke-width="12" stroke-linecap="round" stroke-linejoin="round"/><path id="Path_2" d="M618 536.5C618 536.5 609.529 533 598.235 533C586.941 533 575.189 538 554.941 538C534.694 538 522 533 522 533" stroke="black" stroke-width="12" stroke-linecap="round" stroke-linejoin="round"/></g></g>    </g><g id="notion-avatar-eyebrows">      <!--?xml version="1.0" encoding="UTF-8"?-->    <title>Eyebrows/ 0</title>    <g id="Eyebrows/-0" stroke="none" stroke-width="1" fill="none" fill-rule="evenodd" stroke-linecap="round" stroke-linejoin="round">        <g id="Group" transform="translate(525.000000, 492.000000)" stroke="#000000" stroke-width="16">            <path d="M0,16 C12.8888889,5.33333333 27.8888889,0 45,0 C62.1111111,0 77.1111111,5.33333333 90,16" id="Path"/>            <path d="M138,16 C150.888889,5.33333333 165.888889,0 183,0 C200.111111,0 215.111111,5.33333333 228,16" id="Path"/>        </g>    </g>    </g><g id="notion-avatar-glasses">      <!--?xml version="1.0" encoding="UTF-8"?-->    <title>Glasses/ 6</title>    <g id="Glasses/-6" stroke="none" stroke-width="1" fill="none" fill-rule="evenodd" stroke-linecap="round" stroke-linejoin="round">        <g id="Group" transform="translate(289.000000, 489.000000)" fill="#000000" stroke="#000000" stroke-width="4">            <path d="M507.197382,9.82478969 C513.43226,17.7007378 515.213654,62.5936419 486.711355,88.5842707 C469.404358,104.366146 429.38069,108.487745 402.985851,98.8230032 C386.082673,92.6337314 377.827731,74.7226245 375.444668,70.5905602 L375.374248,70.46959 C367.818365,57.6210186 359.693569,48.7969114 350.999861,43.9972684 C342.444422,48.7207266 334.439709,57.3419022 326.985986,69.8607952 L326.625752,70.46959 C324.338153,74.359588 316.088066,92.5712135 299.014149,98.8230032 C272.61931,108.487745 232.595642,104.366146 215.288645,88.5842707 C186.786346,62.5936419 188.56774,17.7007378 194.802618,9.82478969 C201.037496,1.94884159 243.790945,-3.56432208 278.528122,2.7364364 C313.265299,9.03719488 328.491531,25.281971 335.53272,27.9394703 C339.929408,29.5988766 344.89638,30.3949699 350.433636,30.3277503 L350.434736,30.3022547 L351,30.3179093 L351.565264,30.3022547 L351.566163,30.3277478 C357.1035,30.3949891 362.070539,29.5988966 366.46728,27.9394703 C373.508469,25.281971 388.734701,9.03719488 423.471878,2.7364364 C458.209055,-3.56432208 500.962504,1.94884159 507.197382,9.82478969 Z M209.053767,15.3379534 C189.458437,28.7270651 207.272374,75.1951589 225.977008,88.5842707 C244.681642,101.973382 289.216484,98.8230032 299.904846,91.7346499 C310.593209,84.6462966 334.642023,53.930099 326.625752,34.2402288 C318.60948,14.5503585 237.556067,1.16124678 209.053767,15.3379534 Z M492.946233,15.3379534 C464.443933,1.16124678 383.39052,14.5503585 375.374248,34.2402288 C367.357977,53.930099 391.406791,84.6462966 402.095154,91.7346499 C412.783516,98.8230032 457.318358,101.973382 476.022992,88.5842707 C494.727626,75.1951589 512.541563,28.7270651 492.946233,15.3379534 Z" id="Combined-Shape"/>            <polygon id="Path" points="199 20 4 52 0 61 199 41"/>        </g>    </g>    </g><g id="notion-avatar-hair">      <!--?xml version="1.0" encoding="UTF-8"?-->    <title>Hairstyle/ 14</title>    <g id="Hairstyle/-14" stroke="none" stroke-width="1" fill="none" fill-rule="evenodd" stroke-linecap="round" stroke-linejoin="round">        <path d="M680,270 L679.806266,273.160795 L679.609741,276.222241 C676.345951,325.933738 670.441789,361.331655 661.897254,382.415992 L665,379 C669.818582,386.792186 673.818582,395.125519 677,404 C680.036808,412.471095 682.300877,421.360277 683.792209,430.667546 L684,432 L647.608374,403.073582 L646.227511,404.133406 C623.904333,421.217179 612.675037,427.272787 580,434 C546,441 506.08243,434.920906 459.455985,426.268797 L451.257015,424.759716 L448.245051,424.21248 L445.41424,423.708943 C415.372753,418.440663 400.260881,418.526982 379.295767,445.522372 C355.591535,476.044745 392.364515,499.14665 392.364515,516.739062 C392.364515,528.232771 383.924355,572.72458 367.044035,650.214489 L366,655 L328.116663,564.824988 L287.145773,564.824988 C271.780496,507.747385 268.106191,468.653136 276.122857,447.542242 L276.870382,445.586062 L277.654986,443.563497 C290.903153,409.703973 325.666429,336.148175 426,325 L435.080765,323.995517 C514.214015,315.281244 517.115218,315.984459 542.209426,309.027564 L547.418732,306.77818 C558.682042,301.897336 567.859264,297.801723 574.951761,294.49076 L579.663186,292.275583 C592.167897,286.37506 607.613502,278.949866 626,270 L613.81,288.755 L680,270 Z" id="Path" stroke="#000000" stroke-width="12" fill="#000000"/>    </g>    </g><g id="notion-avatar-accessories">      <g id="Accessories/ 12"><g id="Group"><path id="Path" d="M848.364 445.584C849.787 445.071 851.352 445.115 852.744 445.707L850.397 451.229C852.744 445.707 852.745 445.707 852.747 445.708L852.75 445.709L852.759 445.713L852.787 445.725L852.876 445.763C852.95 445.796 853.054 445.841 853.185 445.899C853.448 446.015 853.819 446.182 854.28 446.396C855.199 446.822 856.483 447.439 857.966 448.21C860.889 449.731 864.778 451.952 868.204 454.609C871.355 457.053 875.296 460.743 876.573 465.471C877.29 468.125 877.144 471.033 875.712 473.814C874.356 476.446 872.1 478.476 869.469 480.075C863.829 483.501 856.637 484.18 849.944 483.852C843.082 483.515 835.794 482.064 829.258 480.353C822.687 478.634 816.679 476.6 812.325 475.003C810.143 474.202 808.364 473.506 807.122 473.007C806.501 472.758 806.014 472.557 805.677 472.417C805.509 472.347 805.378 472.292 805.287 472.253L805.18 472.208L805.15 472.195L805.14 472.191L805.137 472.19C805.136 472.189 805.135 472.189 807.503 466.676L805.135 472.189C802.871 471.216 801.432 468.958 801.506 466.495C801.58 464.033 803.152 461.866 805.47 461.031L848.364 445.584Z" fill="white" stroke="black" stroke-width="12" stroke-linecap="round" stroke-linejoin="round"/><path id="Path_2" d="M861.983 450.136C864.506 451.321 865.881 454.088 865.301 456.815C864.721 459.542 862.34 461.51 859.552 461.566L859.551 461.566L859.536 461.566L859.47 461.568C859.409 461.569 859.315 461.571 859.191 461.575C858.941 461.581 858.568 461.592 858.084 461.609C857.116 461.642 855.708 461.697 853.968 461.787C850.482 461.968 845.689 462.285 840.45 462.832C829.639 463.959 818.065 465.961 811.673 469.176C782.246 483.973 750.71 499.226 720.703 510.561C690.825 521.848 661.816 529.509 637.597 528.591C594.287 526.948 545.131 507.141 507.283 488.165C488.255 478.625 471.883 469.19 460.266 462.139C454.454 458.612 449.826 455.678 446.644 453.62C445.052 452.591 443.822 451.781 442.985 451.225C442.566 450.947 442.246 450.733 442.028 450.587L441.908 450.506L441.779 450.419L441.713 450.374L441.695 450.362L441.689 450.358C441.688 450.357 441.686 450.356 445.06 445.395L441.686 450.356C439.683 448.994 438.696 446.561 439.183 444.188C439.67 441.815 441.536 439.968 443.914 439.505L721.566 385.467C722.815 385.223 724.11 385.384 725.262 385.925L861.983 450.136Z" fill="white" stroke="black" stroke-width="12" stroke-linecap="round" stroke-linejoin="round"/><path id="Path_3" d="M742.712 401.356L748.621 400.312C749.13 403.194 747.486 406.022 744.73 407.006L742.712 401.356ZM742.712 401.356C748.621 400.312 748.62 400.309 748.619 400.304L748.617 400.291L748.61 400.25C748.604 400.217 748.595 400.17 748.584 400.111C748.562 399.993 748.531 399.825 748.489 399.607C748.405 399.173 748.279 398.542 748.108 397.73C747.765 396.106 747.239 393.752 746.495 390.777C745.007 384.828 742.644 376.386 739.126 366.312C732.097 346.184 720.417 319.43 701.806 293.031C664.434 240.023 599.167 188.634 488.669 195.067C378.312 201.491 322.938 256.206 295.494 309.669C281.857 336.234 275.177 362.341 271.899 381.774C270.257 391.502 269.462 399.591 269.078 405.274C268.886 408.116 268.796 410.36 268.754 411.909C268.734 412.683 268.725 413.284 268.721 413.7C268.72 413.908 268.719 414.07 268.719 414.184C268.719 414.241 268.719 414.286 268.72 414.319L268.72 414.359L268.72 414.372C268.72 414.377 268.72 414.381 274.72 414.327M742.712 401.356C744.73 407.006 744.729 407.007 744.728 407.007L744.725 407.008L744.714 407.012L744.672 407.027L744.508 407.085C744.364 407.136 744.151 407.212 743.872 407.311C743.314 407.508 742.491 407.798 741.428 408.169C739.303 408.913 736.215 409.984 732.358 411.298C724.646 413.926 713.849 417.531 701.507 421.436C676.883 429.227 645.881 438.29 620.931 443.146C596.034 447.992 557.102 452.549 524.587 455.885C508.288 457.557 493.533 458.929 482.852 459.883C477.511 460.36 473.188 460.733 470.198 460.986C468.703 461.113 467.542 461.21 466.753 461.275C466.359 461.308 466.058 461.333 465.855 461.349L465.625 461.368L465.566 461.373L465.551 461.374L465.548 461.375C465.547 461.375 465.546 461.375 465.061 455.394M274.72 414.327C270.992 419.028 270.993 419.029 270.994 419.03L270.998 419.033L271.006 419.039L271.031 419.059L271.116 419.126C271.189 419.182 271.291 419.262 271.423 419.364C271.687 419.567 272.069 419.858 272.564 420.228C273.553 420.966 274.994 422.017 276.837 423.298C280.521 425.858 285.828 429.346 292.372 433.1C305.414 440.58 323.591 449.24 343.776 453.595C363.727 457.9 394.227 459.822 419.367 460.692C432.015 461.13 443.442 461.306 451.706 461.372C455.839 461.405 459.184 461.41 461.499 461.408C462.656 461.406 463.556 461.403 464.168 461.4C464.475 461.398 464.709 461.397 464.867 461.396L465.048 461.395L465.095 461.394L465.107 461.394L465.11 461.394C465.111 461.394 465.112 461.394 465.061 455.394M274.72 414.327L270.992 419.028C269.571 417.902 268.736 416.194 268.72 414.381L274.72 414.327ZM465.061 455.394L465.546 461.375C465.402 461.386 465.257 461.393 465.112 461.394L465.061 455.394Z" fill="white" stroke="black" stroke-width="12" stroke-linecap="round" stroke-linejoin="round"/><path id="Oval" d="M467.691 222.831C459.814 223.798 452.181 223.033 446.139 220.727C440.381 218.529 434.472 214.203 433.606 207.15C432.739 200.096 437.427 194.469 442.482 190.944C447.787 187.244 455.008 184.655 462.885 183.688C470.762 182.721 478.395 183.486 484.437 185.792C490.196 187.99 496.105 192.316 496.971 199.369C497.837 206.423 493.15 212.05 488.094 215.575C482.789 219.275 475.568 221.864 467.691 222.831Z" fill="white" stroke="black" stroke-width="12" stroke-linecap="round" stroke-linejoin="round"/></g></g>    </g><g id="notion-avatar-details">      <!--?xml version="1.0" encoding="UTF-8"?-->    <title>Details/ 0</title>    <g id="Details/-0" stroke="none" stroke-width="1" fill="none" fill-rule="evenodd"/>    </g><g id="notion-avatar-beard">      <!--?xml version="1.0" encoding="UTF-8"?-->    <title>Beard/ 0</title>    <g id="Beard/-0" stroke="none" stroke-width="1" fill="none" fill-rule="evenodd"/>    </g>      </g>      </svg>